HIERARCHY
ROOT joint_Root
{
	OFFSET 0.0 0.0 0.0
	CHANNELS 6 Xposition Yposition Zposition Zrotation Xrotation Yrotation 
	JOINT Hips
	{
		OFFSET -0.726466 93.3139 -2.00062
		CHANNELS 6 Xposition Yposition Zposition Zrotation Xrotation Yrotation 
		JOINT Spine
		{
			OFFSET 15.7357 0.0 0.0
			CHANNELS 6 Xposition Yposition Zposition Zrotation Xrotation Yrotation 
			JOINT Chest
			{
				OFFSET 8.98455 -0.406207 0.0
				CHANNELS 6 Xposition Yposition Zposition Zrotation Xrotation Yrotation 
				JOINT Neck
				{
					OFFSET 16.3773 0.0 0.0
					CHANNELS 6 Xposition Yposition Zposition Zrotation Xrotation Yrotation 
					JOINT Head
					{
						OFFSET 6.45672 0.0 0.0
						CHANNELS 6 Xposition Yposition Zposition Zrotation Xrotation Yrotation 
						End Site
						{
							OFFSET 0.0 0.0 0.0
						}
					}
				}
				JOINT Shoulder_L
				{
					OFFSET 12.9942 -0.242716 4.98039
					CHANNELS 6 Xposition Yposition Zposition Zrotation Xrotation Yrotation 
					JOINT UpperArm_L
					{
						OFFSET 5.34809 0.0 0.0
						CHANNELS 6 Xposition Yposition Zposition Zrotation Xrotation Yrotation 
						JOINT LowerArm_L
						{
							OFFSET 24.3286 1.87007e-05 0.0
							CHANNELS 6 Xposition Yposition Zposition Zrotation Xrotation Yrotation 
							JOINT Hand_L
							{
								OFFSET 22.2916 0.0 0.0
								CHANNELS 6 Xposition Yposition Zposition Zrotation Xrotation Yrotation 
								End Site
								{
									OFFSET 0.0 0.0 0.0
								}
							}
						}
					}
				}
				JOINT Shoulder_R
				{
					OFFSET 12.9945 -0.242716 -4.98039
					CHANNELS 6 Xposition Yposition Zposition Zrotation Xrotation Yrotation 
					JOINT UpperArm_R
					{
						OFFSET -5.34813 0.0 0.0
						CHANNELS 6 Xposition Yposition Zposition Zrotation Xrotation Yrotation 
						JOINT LowerArm_R
						{
							OFFSET -24.3289 0.000322201 0.0
							CHANNELS 6 Xposition Yposition Zposition Zrotation Xrotation Yrotation 
							JOINT Hand_R
							{
								OFFSET -22.2915 -0.000108084 0.0
								CHANNELS 6 Xposition Yposition Zposition Zrotation Xrotation Yrotation 
								End Site
								{
									OFFSET 0.0 0.0 0.0
								}
							}
						}
					}
				}
			}
		}
		JOINT UpperLeg_L
		{
			OFFSET -2.19248 -6.46944 0.0
			CHANNELS 6 Xposition Yposition Zposition Zrotation Xrotation Yrotation 
			JOINT LowerLeg_L
			{
				OFFSET 39.0811 0.0 -1.23785e-05
				CHANNELS 6 Xposition Yposition Zposition Zrotation Xrotation Yrotation 
				JOINT Foot_L
				{
					OFFSET 40.9854 0.0 -1.26872e-05
					CHANNELS 6 Xposition Yposition Zposition Zrotation Xrotation Yrotation 
					JOINT Toes_L
					{
						OFFSET 11.7543 0.0 0.0
						CHANNELS 6 Xposition Yposition Zposition Zrotation Xrotation Yrotation 
						End Site
						{
							OFFSET 0.0 0.0 0.0
						}
					}
				}
			}
		}
		JOINT UpperLeg_R
		{
			OFFSET -2.19251 6.46944 0.0
			CHANNELS 6 Xposition Yposition Zposition Zrotation Xrotation Yrotation 
			JOINT LowerLeg_R
			{
				OFFSET -39.0811 -0.00228153 -0.0401928
				CHANNELS 6 Xposition Yposition Zposition Zrotation Xrotation Yrotation 
				JOINT Foot_R
				{
					OFFSET -40.9854 0.0 0.0
					CHANNELS 6 Xposition Yposition Zposition Zrotation Xrotation Yrotation 
					JOINT Toes_R
					{
						OFFSET -11.7543 0.0 0.0
						CHANNELS 6 Xposition Yposition Zposition Zrotation Xrotation Yrotation 
						End Site
						{
							OFFSET 0.0 0.0 0.0
						}
					}
				}
			}
		}
	}
}
MOTION
Frames:	5
Frame Time:	0.0333333
0.000000 0.000000 0.000000 0.000000 0.000000 -0.000000 -1.649510 92.066000 -0.478296 88.171500 1.291250 7.166660 15.735700 0.000005 -0.000001 76.395400 87.467700 -76.159600 8.984550 -0.406207 -0.000000 -2.841250 -1.212660 0.441521 16.377300 -0.000001 -0.000001 -0.038616 -1.380460 0.561715 6.456720 -0.000001 -0.000000 -3.881880 -1.505300 0.288223 12.994200 -0.242716 4.980390 -82.801000 -13.398800 -61.405700 5.348090 -0.000007 -0.000001 -65.693300 -46.690700 -128.117000 24.328600 0.000019 0.000005 3.565510 2.986080 -50.103100 22.291600 -0.000001 0.000005 17.997900 5.555970 -8.991150 12.994500 -0.242716 -4.980390 95.328300 -10.925300 -63.798600 -5.348130 -0.000001 -0.000004 -72.283600 -43.159200 -143.950000 -24.328900 0.000322 -0.000009 -1.148130 -1.221020 -43.214500 -22.291500 -0.000108 -0.000004 19.711900 5.464150 -5.153500 -2.192480 -6.469440 -0.000000 -168.633000 -16.181300 -1.057410 39.081100 -0.000007 -0.000012 -0.159976 0.389423 22.333200 40.985400 -0.000006 -0.000013 -6.408200 -0.602112 -62.075100 11.754300 -0.000000 0.000003 -0.000093 -0.000968 -16.614800 -2.192510 6.469440 -0.000001 173.283000 21.525500 -178.310000 -39.081100 -0.002282 -0.040193 0.016751 -0.034578 21.229200 -40.985400 0.000008 0.000006 -1.525680 0.508131 -63.580600 -11.754300 -0.000006 -0.000006 -0.007347 -0.082618 -19.936700
0.000000 0.000000 0.000000 0.000000 0.000000 -0.000000 -1.646970 92.089500 -0.530068 88.162900 1.164640 7.051550 15.735700 0.000005 -0.000001 75.823100 87.460000 -75.570900 8.984550 -0.406207 -0.000000 -2.838170 -1.267040 0.472988 16.377300 -0.000001 -0.000001 -0.022649 -1.365130 0.540728 6.456720 -0.000001 -0.000000 -4.161810 -1.471450 0.315832 12.994200 -0.242716 4.980390 -82.635400 -13.597900 -61.200300 5.348090 -0.000007 -0.000001 -66.484200 -47.135500 -127.646000 24.328600 0.000019 0.000005 3.735000 3.137170 -50.025600 22.291600 -0.000001 0.000005 18.106100 5.557350 -9.057720 12.994500 -0.242716 -4.980390 95.427700 -11.058100 -63.647100 -5.348130 -0.000001 -0.000004 -72.701500 -43.387300 -143.885000 -24.328900 0.000322 -0.000009 -0.566246 -0.625279 -42.102300 -22.291500 -0.000108 -0.000004 19.804600 5.462920 -5.108040 -2.192480 -6.469440 -0.000000 -168.655000 -16.299800 -1.106290 39.081100 -0.000007 -0.000012 -0.156913 0.384698 22.190000 40.985400 -0.000006 -0.000013 -6.395800 -0.619449 -61.984500 11.754300 -0.000000 0.000003 -0.000084 -0.000887 -16.611700 -2.192510 6.469440 -0.000001 173.390000 21.505200 -178.465000 -39.081100 -0.002282 -0.040193 0.023875 -0.053144 21.146000 -40.985400 0.000008 0.000006 -1.311460 0.552583 -63.494700 -11.754300 -0.000006 -0.000006 -0.007454 -0.083518 -19.973500
0.000000 0.000000 0.000000 0.000000 0.000000 -0.000000 -1.631090 92.119800 -0.568854 88.159600 0.996359 6.876290 15.735700 0.000005 -0.000001 75.413600 87.492800 -75.155500 8.984550 -0.406207 -0.000000 -2.910720 -1.286340 0.483570 16.377300 -0.000001 -0.000001 -0.045494 -1.384190 0.580415 6.456720 -0.000001 -0.000000 -4.222900 -1.494840 0.343278 12.994200 -0.242716 4.980390 -82.594000 -13.614900 -61.092900 5.348090 -0.000007 -0.000001 -66.742800 -48.145600 -126.183000 24.328600 0.000019 0.000005 3.750670 3.201080 -49.575000 22.291600 -0.000001 0.000005 18.074700 5.554620 -8.926120 12.994500 -0.242716 -4.980390 95.457500 -11.054200 -63.513400 -5.348130 -0.000001 -0.000004 -72.965700 -44.135600 -142.806000 -24.328900 0.000322 -0.000009 -0.140312 -0.161128 -40.813400 -22.291500 -0.000108 -0.000004 19.820700 5.460860 -5.032410 -2.192480 -6.469440 -0.000000 -168.708000 -16.380500 -1.176210 39.081100 -0.000007 -0.000012 -0.155426 0.384882 21.990400 40.985400 -0.000006 -0.000013 -6.402870 -0.744536 -61.884700 11.754300 -0.000000 0.000003 -0.000094 -0.000975 -16.615000 -2.192510 6.469440 -0.000001 173.484000 21.430200 -178.655000 -39.081100 -0.002282 -0.040193 0.023833 -0.053425 21.004800 -40.985400 0.000008 0.000006 -1.277960 0.612168 -63.325100 -11.754300 -0.000006 -0.000006 -0.007356 -0.082693 -19.939800
0.000000 0.000000 0.000000 0.000000 0.000000 -0.000000 -1.615380 92.125400 -0.580531 88.139600 0.822673 6.769530 15.735700 0.000005 -0.000001 75.102600 87.498400 -74.838100 8.984550 -0.406207 -0.000000 -2.928360 -1.310410 0.495708 16.377300 -0.000001 -0.000001 0.037390 -1.460690 0.601949 6.456720 -0.000001 -0.000000 -4.411180 -1.540330 0.383381 12.994200 -0.242716 4.980390 -82.636400 -13.439900 -60.925400 5.348090 -0.000007 -0.000001 -66.912100 -49.272100 -124.116000 24.328600 0.000019 0.000005 3.726360 3.264960 -48.830600 22.291600 -0.000001 0.000005 17.870800 5.553780 -8.885820 12.994500 -0.242716 -4.980390 95.385600 -10.861100 -63.420300 -5.348130 -0.000001 -0.000004 -73.091100 -45.200500 -140.922000 -24.328900 0.000322 -0.000009 -0.277279 -0.334679 -39.528900 -22.291500 -0.000108 -0.000004 19.729600 5.457490 -4.909790 -2.192480 -6.469440 -0.000000 -168.716000 -16.542500 -1.255610 39.081100 -0.000007 -0.000012 -0.153391 0.379778 21.993700 40.985400 -0.000006 -0.000013 -6.392930 -0.794414 -61.893600 11.754300 -0.000000 0.000003 -0.000121 -0.001207 -16.623700 -2.192510 6.469440 -0.000001 173.553000 21.374300 -178.772000 -39.081100 -0.002282 -0.040193 0.024335 -0.054918 20.940300 -40.985400 0.000008 0.000006 -1.235010 0.722372 -63.288700 -11.754300 -0.000006 -0.000006 -0.007232 -0.081644 -19.897000
0.000000 0.000000 0.000000 0.000000 0.000000 -0.000000 -1.608520 92.123600 -0.582707 88.138400 0.643189 6.737310 15.735700 0.000005 -0.000001 75.281600 87.480500 -75.023900 8.984550 -0.406207 -0.000000 -2.889650 -1.303720 0.482649 16.377300 -0.000001 -0.000001 -0.035137 -1.545000 0.642211 6.456720 -0.000001 -0.000000 -4.266800 -1.652490 0.351466 12.994200 -0.242716 4.980390 -82.686900 -13.253000 -60.759600 5.348090 -0.000007 -0.000001 -66.891000 -50.481400 -121.253000 24.328600 0.000019 0.000005 3.325190 3.000650 -47.981300 22.291600 -0.000001 0.000005 17.901100 5.549860 -8.699730 12.994500 -0.242716 -4.980390 95.244500 -10.573100 -63.423800 -5.348130 -0.000001 -0.000004 -72.957100 -46.538300 -138.106000 -24.328900 0.000322 -0.000009 -0.336119 -0.422124 -38.436700 -22.291500 -0.000108 -0.000004 19.764100 5.451780 -4.703220 -2.192480 -6.469440 -0.000000 -168.699000 -16.640300 -1.247930 39.081100 -0.000007 -0.000012 -0.156693 0.387878 21.997700 40.985400 -0.000006 -0.000013 -6.412320 -0.860169 -61.914000 11.754300 -0.000000 0.000003 -0.000108 -0.001100 -16.619700 -2.192510 6.469440 -0.000001 173.553000 21.311900 -178.809000 -39.081100 -0.002282 -0.040193 0.021198 -0.046829 20.896100 -40.985400 0.000008 0.000006 -1.328990 0.855400 -63.266300 -11.754300 -0.000006 -0.000006 -0.007317 -0.082362 -19.926300
